<svg id="svg" version="1.1" xmlns="http://www.w3.org/2000/svg" xmlns:xlink="http://www.w3.org/1999/xlink" width="400" height="431.5684315684316" viewBox="0, 0, 400,431.5684315684316"><g id="svgg"><path id="path0" d="M197.003 133.506 C 188.084 135.248,181.595 144.698,182.989 153.915 C 186.337 176.034,218.781 173.617,218.781 151.249 C 218.781 139.257,208.876 131.187,197.003 133.506 M348.199 352.758 C 329.902 359.304,332.152 385.213,351.262 388.031 C 368.332 390.549,378.783 369.528,366.545 357.290 C 361.881 352.627,354.005 350.681,348.199 352.758 " stroke="none" fill="#fc6404" fill-rule="evenodd"></path><path id="path1" d="M185.215 1.020 C 156.748 4.189,130.323 14.831,108.098 32.076 C 100.197 38.207,98.881 43.678,104.036 48.962 C 108.490 53.528,112.465 53.178,119.880 47.567 C 209.226 -20.042,334.789 43.184,332.355 154.557 C 330.421 243.091,242.376 304.607,158.661 275.917 C 74.979 247.238,42.726 147.105,93.864 74.749 C 97.310 69.874,97.693 68.842,97.426 65.152 C 96.874 57.522,87.648 53.831,81.689 58.857 C 78.920 61.192,71.135 73.311,66.362 82.717 C 33.671 147.144,51.001 225.745,107.692 270.172 C 191.548 335.887,316.138 295.944,345.895 193.806 C 371.988 104.246,312.805 14.019,219.652 1.344 C 213.159 0.460,192.026 0.261,185.215 1.020 M198.402 39.039 C 127.655 41.320,76.610 108.543,93.172 177.622 C 110.363 249.328,191.423 285.205,256.344 249.843 C 311.383 219.863,331.135 149.189,299.624 94.987 C 295.374 87.676,286.317 87.260,282.245 94.189 C 280.115 97.812,280.511 100.495,284.209 107.493 C 320.965 177.040,260.925 257.672,183.816 242.318 C 130.255 231.654,97.008 175.199,113.747 123.338 C 134.063 60.392,209.959 37.930,261.419 79.632 C 269.319 86.035,274.530 86.397,278.766 80.836 C 282.374 76.099,281.174 70.762,275.404 65.896 C 253.576 47.483,226.746 38.126,198.402 39.039 M192.807 82.170 C 120.759 92.869,109.494 189.964,177.222 216.502 C 185.989 219.937,193.007 216.332,193.007 208.392 C 193.007 203.529,190.625 200.619,185.015 198.626 C 147.259 185.219,139.490 135.415,171.385 111.249 C 204.268 86.333,251.558 110.061,251.504 151.449 C 251.477 171.767,240.547 188.236,220.898 197.564 C 207.618 203.868,214.522 220.814,228.205 215.500 C 261.224 202.677,278.878 163.677,267.345 129.031 C 259.570 105.675,240.108 88.440,215.455 83.080 C 211.697 82.262,196.339 81.645,192.807 82.170 M48.352 321.951 C 24.696 324.398,4.462 343.545,0.581 367.154 C -3.866 394.212,11.667 420.615,37.027 429.105 C 56.467 435.613,84.353 428.992,93.692 415.650 L 94.905 413.917 94.905 398.036 L 94.905 382.155 93.696 380.199 C 89.950 374.140,80.681 374.140,76.934 380.198 L 75.724 382.153 75.608 393.791 L 75.491 405.429 73.410 406.799 C 52.955 420.266,23.873 406.991,19.996 382.418 C 15.034 350.969,50.799 329.609,76.324 348.777 C 84.516 354.928,94.251 350.355,93.389 340.759 C 92.421 329.985,68.253 319.892,48.352 321.951 M239.499 322.109 C 190.228 327.159,173.296 391.339,213.312 421.371 C 233.131 436.246,262.363 435.222,281.468 418.984 C 292.678 409.456,280.923 393.930,269.474 403.141 C 252.426 416.856,230.218 414.610,217.545 397.888 C 194.060 366.900,233.149 325.682,265.257 347.578 C 270.437 351.110,271.381 351.598,273.524 351.854 C 283.028 352.990,288.270 341.100,281.156 334.543 C 271.289 325.448,254.837 320.537,239.499 322.109 M340.460 321.924 C 307.905 324.825,285.362 354.071,290.691 386.492 C 294.275 408.298,311.740 426.469,333.419 430.946 C 337.656 431.822,352.466 431.817,356.760 430.939 C 378.815 426.429,396.442 407.540,399.568 385.068 C 404.502 349.590,375.667 318.787,340.460 321.924 M110.820 323.310 C 105.161 324.376,101.540 330.278,103.215 335.706 C 103.528 336.719,111.351 349.680,120.601 364.510 L 137.420 391.474 137.541 407.425 C 137.677 425.265,137.615 424.872,140.724 427.852 C 144.314 431.293,150.591 431.293,154.181 427.852 C 157.282 424.879,157.219 425.276,157.443 407.193 L 157.642 391.009 174.514 364.108 C 183.794 349.313,191.570 336.546,191.795 335.737 C 194.044 327.637,185.821 320.535,178.180 323.979 C 175.447 325.211,174.974 325.881,160.999 348.306 C 153.758 359.924,147.703 369.475,147.543 369.529 C 147.384 369.584,141.409 360.236,134.266 348.756 C 117.984 322.588,117.492 322.054,110.820 323.310 M352.777 342.438 C 369.284 345.844,381.493 362.171,380.282 379.221 C 378.102 409.909,340.926 423.465,319.632 401.336 C 295.429 376.184,318.411 335.346,352.777 342.438 " stroke="none" fill="#040404" fill-rule="evenodd"></path><path id="path2" d="" stroke="none" fill="#1003404" fill-rule="evenodd"></path><path id="path3" d="" stroke="none" fill="#443404" fill-rule="evenodd"></path><path id="path4" d="" stroke="none" fill="#043804" fill-rule="evenodd"></path></g></svg>