<?xml version="1.0" standalone="no"?>
<svg id="svg-workspace" xmlns="http://www.w3.org/2000/svg" viewBox="1 1 70 70" width="70" height="70">
                

                <!-- Tavola da disegno / Artboard Visivo -->
                
                
                <!-- Indicatore dell'Origine (0,0) matematico -->
                

                <g id="main-layer">
                <defs id="gyco_logo_defs_1"/>
                
                <defs id="GYCO_-_Logo_1774362988796_defs_1"/>
                <g id="GYCO_Logo" class=""><defs id="pdf_elem_svg_defs_1"><clipPath id="clippath0" transform=""><path d="M -5.9451 -7.9274 L 277.5195 -7.9274 L 277.5195 77.112 L -5.9451 77.112 Z" fill="none" clip-rule="evenodd" id="pdf_elem_svg_path_2"/></clipPath></defs><path d="M 34.592 30.4651 C 32.3127 30.4651 30.4651 32.313 30.4651 34.5923 C 30.4651 36.8717 32.3127 38.7196 34.592 38.7196 C 36.8717 38.7196 38.7193 36.8717 38.7193 34.5923 C 38.7193 32.313 36.8717 30.4651 34.592 30.4651" fill="#ff6600" fill-rule="evenodd" fill-opacity="1" id="orange_dot" transform="matrix(1 0 0 -1 1 70.1846)" class=""/><path d="M 15.3193 57.901 C 14.394 57.136 13.0238 57.2658 12.2587 58.191 C 11.4936 59.1163 11.6235 60.4865 12.5487 61.2516 Z Z M 34.592 69.1846 L 34.592 64.8374 L 34.592 64.8374 L 33.933 64.83 L 33.2756 64.8088 L 32.6203 64.7731 L 31.9663 64.7232 L 31.3149 64.6594 L 30.6658 64.5814 L 30.0189 64.4896 L 29.3749 64.3839 L 28.7345 64.2648 L 28.097 64.1316 L 27.4623 63.985 L 26.8319 63.8246 L 26.2052 63.6511 L 25.5824 63.4643 L 24.9647 63.2642 L 24.351 63.0505 L 23.7416 62.8237 L 23.1369 62.5839 L 22.5383 62.3316 L 21.945 62.0663 L 21.3571 61.7876 L 20.7743 61.4962 L 20.1983 61.1929 L 19.6291 60.8766 L 19.0653 60.5472 L 18.508 60.2059 L 17.9586 59.8524 L 17.4155 59.4862 L 16.8797 59.108 L 16.3519 58.7177 L 15.8315 58.3155 L 15.3193 57.901 L 12.5487 61.2516 L 13.1346 61.7255 L 13.7299 62.1856 L 14.3337 62.6321 L 14.9465 63.0646 L 15.5667 63.483 L 16.1966 63.8881 L 16.8333 64.2781 L 17.477 64.654 L 18.1295 65.0163 L 18.7889 65.3638 L 19.4545 65.6966 L 20.1268 66.0149 L 20.8057 66.3188 L 21.4911 66.6079 L 22.182 66.8818 L 22.8781 67.1409 L 23.5803 67.3852 L 24.2875 67.6142 L 24.9999 67.8283 L 25.7162 68.0267 L 26.4379 68.2098 L 27.1627 68.3773 L 27.8921 68.5298 L 28.6254 68.6665 L 29.3618 68.7869 L 30.1011 68.8918 L 30.8438 68.9811 L 31.5887 69.054 L 32.3362 69.1112 L 33.0868 69.152 L 33.8389 69.1767 L 34.592 69.1846 Z Z M 69.1843 34.5923 L 64.8371 34.5923 L 64.8371 34.5923 L 64.7974 36.1511 L 64.6809 37.6877 L 64.4882 39.2014 L 64.2226 40.6905 L 63.8847 42.1529 L 63.4774 43.5875 L 63.0023 44.9921 L 62.4611 46.3649 L 61.8554 47.704 L 61.1878 49.0076 L 60.4596 50.2739 L 59.6727 51.5013 L 58.8297 52.6873 L 57.9314 53.8302 L 56.9803 54.9278 L 55.9786 55.9789 L 54.9275 56.9806 L 53.8299 57.9317 L 52.687 58.83 L 51.501 59.673 L 50.2736 60.4599 L 49.0073 61.1881 L 47.7037 61.8557 L 46.3646 62.4614 L 44.9918 63.0026 L 43.5872 63.4776 L 42.1526 63.885 L 40.6902 64.2229 L 39.2012 64.4885 L 37.6875 64.6812 L 36.1508 64.7977 L 34.592 64.8374 L 34.592 69.1846 L 36.3696 69.1398 L 38.1257 69.0063 L 39.8571 68.7864 L 41.561 68.4822 L 43.2354 68.0956 L 44.8775 67.6293 L 46.4856 67.085 L 48.0574 66.4656 L 49.5904 65.7726 L 51.0823 65.0086 L 52.5311 64.1755 L 53.9342 63.2758 L 55.2903 62.3115 L 56.5971 61.2845 L 57.8517 60.198 L 59.0525 59.0528 L 60.1977 57.852 L 61.2842 56.5974 L 62.3112 55.2906 L 63.2755 53.9345 L 64.1752 52.5314 L 65.0083 51.0826 L 65.7723 49.5907 L 66.4654 48.0577 L 67.0847 46.4859 L 67.629 44.8778 L 68.0953 43.2357 L 68.4819 41.5613 L 68.7861 39.8574 L 69.006 38.126 L 69.1396 36.3699 L 69.1843 34.5923 Z Z M 34.592 0 L 34.592 4.3472 L 34.592 4.3472 L 36.1508 4.3869 L 37.6875 4.5034 L 39.2012 4.6962 L 40.6902 4.9618 L 42.1526 5.2997 L 43.5872 5.707 L 44.9918 6.1821 L 46.3646 6.7232 L 47.7037 7.329 L 49.0073 7.9965 L 50.2736 8.7248 L 51.501 9.5117 L 52.687 10.3547 L 53.8299 11.253 L 54.9275 12.204 L 55.9786 13.2058 L 56.9803 14.2569 L 57.9314 15.3544 L 58.8297 16.4974 L 59.6727 17.6834 L 60.4596 18.9108 L 61.1878 20.177 L 61.8554 21.4807 L 62.4611 22.8197 L 63.0023 24.1926 L 63.4774 25.5971 L 63.8847 27.0317 L 64.2226 28.4941 L 64.4882 29.9832 L 64.6809 31.4969 L 64.7974 33.0335 L 64.8371 34.5923 L 69.1843 34.5923 L 69.1396 32.8147 L 69.006 31.0586 L 68.7861 29.3272 L 68.4819 27.6233 L 68.0953 25.9489 L 67.629 24.3068 L 67.0847 22.6987 L 66.4654 21.1269 L 65.7723 19.5939 L 65.0083 18.102 L 64.1752 16.6533 L 63.2755 15.2501 L 62.3112 13.894 L 61.2842 12.5872 L 60.1977 11.3326 L 59.0525 10.1319 L 57.8517 8.9867 L 56.5971 7.9002 L 55.2903 6.8732 L 53.9342 5.9088 L 52.5311 5.0091 L 51.0823 4.176 L 49.5904 3.4121 L 48.0574 2.719 L 46.4856 2.0996 L 44.8775 1.5554 L 43.2354 1.0891 L 41.561 0.7024 L 39.8571 0.3983 L 38.1257 0.1783 L 36.3696 0.0448 L 34.592 0 Z Z M 0 34.5923 L 4.3472 34.5923 L 4.3472 34.5923 L 4.3869 33.0335 L 4.5034 31.4969 L 4.6962 29.9832 L 4.9618 28.4941 L 5.2997 27.0317 L 5.707 25.5971 L 6.1821 24.1926 L 6.7232 22.8197 L 7.329 21.4807 L 7.9965 20.177 L 8.7248 18.9108 L 9.5117 17.6834 L 10.355 16.4974 L 11.2527 15.3544 L 12.2037 14.2569 L 13.2058 13.2058 L 14.2569 12.204 L 15.3544 11.253 L 16.4976 10.3547 L 17.6831 9.5117 L 18.9108 8.7248 L 20.177 7.9965 L 21.4807 7.329 L 22.82 6.7232 L 24.1923 6.1821 L 25.5969 5.707 L 27.0315 5.2997 L 28.4939 4.9618 L 29.9829 4.6962 L 31.4966 4.5034 L 33.0333 4.3869 L 34.592 4.3472 L 34.592 0 L 32.8144 0.0448 L 31.0584 0.1783 L 29.327 0.3983 L 27.6231 0.7024 L 25.9486 1.0891 L 24.3065 1.5554 L 22.6984 2.0996 L 21.1266 2.719 L 19.5939 3.4121 L 18.102 4.176 L 16.6533 5.0091 L 15.2498 5.9088 L 13.8937 6.8732 L 12.5872 7.9002 L 11.3326 8.9867 L 10.1319 10.1319 L 8.987 11.3326 L 7.8999 12.5872 L 6.8729 13.894 L 5.9088 15.2501 L 5.0091 16.6533 L 4.176 18.102 L 3.4121 19.5939 L 2.719 21.1269 L 2.0996 22.6987 L 1.5554 24.3068 L 1.0891 25.9489 L 0.7024 27.6233 L 0.3983 29.3272 L 0.1783 31.0586 L 0.0448 32.8147 L 0 34.5923 Z Z M 6.9653 55.41 L 10.4372 52.7936 L 10.0721 52.2986 L 9.7177 51.7972 L 9.3739 51.2892 L 9.0408 50.775 L 8.7185 50.2546 L 8.4073 49.7288 L 8.1074 49.1978 L 7.8185 48.6607 L 7.5404 48.1184 L 7.2734 47.5707 L 7.0177 47.0183 L 6.7734 46.461 L 6.5404 45.8997 L 6.319 45.3339 L 6.1089 44.7633 L 5.9102 44.1887 L 5.7229 43.6105 L 5.5477 43.0285 L 5.3841 42.4434 L 5.2322 41.8544 L 5.0919 41.2622 L 4.9637 40.6672 L 4.8472 40.0694 L 4.7429 39.4693 L 4.6508 38.8664 L 4.5706 38.2609 L 4.5026 37.6543 L 4.447 37.0451 L 4.4033 36.4337 L 4.3722 35.8214 L 4.3537 35.2077 L 4.3472 34.5923 L 0 34.5923 L 0.0071 35.2956 L 0.0283 35.9977 L 0.0641 36.699 L 0.114 37.3972 L 0.1774 38.0937 L 0.2551 38.7887 L 0.3472 39.4809 L 0.4524 40.17 L 0.572 40.8574 L 0.705 41.5409 L 0.8518 42.2215 L 1.012 42.8981 L 1.1854 43.5716 L 1.3728 44.2412 L 1.5735 44.907 L 1.7875 45.5686 L 2.0146 46.2249 L 2.2547 46.8771 L 2.5084 47.5251 L 2.7748 48.1674 L 3.0543 48.8047 L 3.3469 49.4365 L 3.6519 50.0624 L 3.9696 50.6823 L 4.3004 51.2966 L 4.644 51.9052 L 5 52.5064 L 5.3683 53.1011 L 5.7489 53.689 L 6.1421 54.2701 L 6.5475 54.8436 Z M 6.9653 55.41 C 7.6876 56.3686 9.0507 56.56 10.0094 55.8377 C 10.9681 55.1154 11.1594 53.7523 10.4372 52.7936 Z" fill="#000000" fill-opacity="1" id="circle_big" transform="matrix(1 0 0 -1 1 70.1846)" class=""/><path d="M 53.297 45.489 C 52.685 46.5214 53.0257 47.8553 54.0581 48.4673 C 55.0905 49.0793 56.4245 48.7386 57.0365 47.7062 Z Z M 60.6319 34.5923 L 56.2847 34.5923 L 56.2847 34.5923 L 56.2816 34.9515 L 56.2725 35.3109 L 56.2575 35.6689 L 56.2365 36.0261 L 56.2096 36.383 L 56.1764 36.7393 L 56.1376 37.0947 L 56.0928 37.4488 L 56.0424 37.8017 L 55.9857 38.154 L 55.923 38.5053 L 55.855 38.8556 L 55.7807 39.2043 L 55.7011 39.5515 L 55.6155 39.8971 L 55.5239 40.242 L 55.427 40.585 L 55.3243 40.9258 L 55.2161 41.2645 L 55.1015 41.6032 L 54.9819 41.9389 L 54.8566 42.2722 L 54.7254 42.6042 L 54.5888 42.9341 L 54.4465 43.2618 L 54.2991 43.5869 L 54.1454 43.9104 L 53.9867 44.2315 L 53.8226 44.5496 L 53.6528 44.8651 L 53.4776 45.1783 L 53.297 45.489 L 57.0365 47.7062 L 57.2539 47.3326 L 57.4648 46.9559 L 57.6692 46.5752 L 57.8667 46.192 L 58.0578 45.8062 L 58.242 45.4175 L 58.4201 45.0261 L 58.5913 44.6315 L 58.7557 44.2346 L 58.913 43.8358 L 59.0644 43.4333 L 59.2084 43.0291 L 59.3456 42.6234 L 59.4765 42.2144 L 59.6001 41.8034 L 59.7169 41.3912 L 59.8266 40.9771 L 59.9298 40.5607 L 60.0259 40.1426 L 60.1149 39.723 L 60.1971 39.3018 L 60.2722 38.8797 L 60.3403 38.4554 L 60.4015 38.0299 L 60.4553 37.6033 L 60.5021 37.1758 L 60.5415 36.7475 L 60.5741 36.318 L 60.5996 35.8872 L 60.6175 35.456 L 60.6283 35.0246 L 60.6319 34.5923 Z Z M 34.9186 8.879 L 34.9186 13.2262 L 34.9186 13.2262 L 36.0201 13.2542 L 37.1061 13.3367 L 38.1756 13.4728 L 39.2272 13.6604 L 40.2605 13.8988 L 41.2733 14.1866 L 42.2651 14.5222 L 43.2349 14.9046 L 44.1808 15.3323 L 45.1015 15.804 L 45.9964 16.3182 L 46.8629 16.8738 L 47.7009 17.4699 L 48.5084 18.1046 L 49.2843 18.7764 L 50.0267 19.4839 L 50.7345 20.2266 L 51.4063 21.0025 L 52.041 21.81 L 52.6371 22.648 L 53.1927 23.5145 L 53.7069 24.4094 L 54.1786 25.3301 L 54.6063 26.276 L 54.9887 27.2458 L 55.3243 28.2376 L 55.6121 29.2504 L 55.8505 30.2837 L 56.0381 31.3353 L 56.1742 32.4048 L 56.2567 33.4908 L 56.2847 34.5923 L 60.6319 34.5923 L 60.5988 33.2714 L 60.4993 31.966 L 60.336 30.6794 L 60.1098 29.4129 L 59.8226 28.1682 L 59.476 26.9467 L 59.0712 25.7513 L 58.6106 24.5832 L 58.0955 23.4434 L 57.5274 22.3345 L 56.9083 21.2576 L 56.2394 20.2141 L 55.5225 19.2061 L 54.7597 18.2353 L 53.9518 17.303 L 53.1006 16.41 L 52.2079 15.5591 L 51.2756 14.7512 L 50.3048 13.9884 L 49.2968 13.2715 L 48.2533 12.6026 L 47.1764 11.9835 L 46.0675 11.4154 L 44.9277 10.9003 L 43.7596 10.4397 L 42.5642 10.0349 L 41.3427 9.6883 L 40.098 9.4011 L 38.8315 9.1749 L 37.5449 9.0116 L 36.2395 8.9121 L 34.9186 8.879 Z Z M 9.2052 34.5923 L 13.5524 34.5923 L 13.5524 34.5923 L 13.5805 33.4908 L 13.663 32.4048 L 13.7991 31.3353 L 13.9867 30.2837 L 14.2251 29.2504 L 14.5128 28.2376 L 14.8484 27.2458 L 15.2308 26.276 L 15.6586 25.3301 L 16.13 24.4094 L 16.6448 23.5148 L 17.2006 22.6477 L 17.7965 21.8098 L 18.4309 21.0025 L 19.1027 20.2266 L 19.8105 19.4839 L 20.5529 18.7764 L 21.3287 18.1046 L 22.1363 17.4699 L 22.9742 16.8738 L 23.8408 16.3182 L 24.7354 15.804 L 25.6567 15.3323 L 26.6026 14.9046 L 27.572 14.5222 L 28.5642 14.1866 L 29.5767 13.8988 L 30.6099 13.6604 L 31.6616 13.4728 L 32.7311 13.3367 L 33.817 13.2542 L 34.9186 13.2262 L 34.9186 8.879 L 33.5976 8.9121 L 32.2923 9.0116 L 31.0056 9.1749 L 29.7391 9.4011 L 28.4944 9.6883 L 27.2733 10.0349 L 26.0776 10.4397 L 24.9092 10.9003 L 23.7699 11.4154 L 22.661 11.9835 L 21.5838 12.6026 L 20.5404 13.2715 L 19.5324 13.9884 L 18.5615 14.7512 L 17.6292 15.5591 L 16.7366 16.41 L 15.8854 17.303 L 15.0775 18.2353 L 14.3144 19.2064 L 13.5978 20.2144 L 12.9291 21.2573 L 12.31 22.3345 L 11.7417 23.4434 L 11.2266 24.5832 L 10.766 25.7513 L 10.3612 26.9467 L 10.0145 28.1682 L 9.7274 29.4129 L 9.5012 30.6794 L 9.3379 31.966 L 9.2384 33.2714 L 9.2052 34.5923 Z Z M 34.9186 60.3057 L 34.9186 55.9585 L 34.9186 55.9585 L 33.817 55.9304 L 32.7311 55.8479 L 31.6616 55.7118 L 30.6099 55.5242 L 29.5767 55.2858 L 28.5642 54.9981 L 27.572 54.6625 L 26.6026 54.2801 L 25.6567 53.8523 L 24.7357 53.3806 L 23.8411 52.8661 L 22.974 52.3103 L 22.136 51.7144 L 21.3287 51.08 L 20.5532 50.4082 L 19.8105 49.7004 L 19.1027 48.9577 L 18.4309 48.1822 L 17.7965 47.3749 L 17.2006 46.5369 L 16.6448 45.6698 L 16.1303 44.7752 L 15.6586 43.8542 L 15.2308 42.9083 L 14.8484 41.9389 L 14.5128 40.9467 L 14.2251 39.9342 L 13.9867 38.901 L 13.7991 37.8493 L 13.663 36.7798 L 13.5805 35.6939 L 13.5524 34.5923 L 9.2052 34.5923 L 9.2384 35.9133 L 9.3379 37.2186 L 9.5012 38.5053 L 9.7274 39.7718 L 10.0145 41.0165 L 10.3612 42.2376 L 10.766 43.4333 L 11.2266 44.6017 L 11.7417 45.741 L 12.3097 46.8502 L 12.9291 47.9273 L 13.5978 48.9702 L 14.3144 49.9782 L 15.0775 50.9494 L 15.8854 51.882 L 16.7366 52.7743 L 17.6289 53.6255 L 18.5615 54.4334 L 19.5327 55.1965 L 20.5407 55.9131 L 21.5836 56.5818 L 22.6607 57.2012 L 23.7699 57.7692 L 24.9092 58.2843 L 26.0776 58.7449 L 27.2733 59.1497 L 28.4944 59.4964 L 29.7391 59.7835 L 31.0056 60.0097 L 32.2923 60.173 L 33.5976 60.2725 L 34.9186 60.3057 Z Z M 52.1306 53.6956 L 49.2205 50.4658 L 48.8489 50.7929 L 48.4713 51.1104 L 48.0869 51.4179 L 47.6957 51.717 L 47.2989 52.0061 L 46.8958 52.2856 L 46.4871 52.5555 L 46.0729 52.8157 L 45.6534 53.066 L 45.2282 53.3066 L 44.7987 53.5368 L 44.3633 53.7574 L 43.924 53.968 L 43.4801 54.1681 L 43.0311 54.3583 L 42.5789 54.538 L 42.1223 54.7072 L 41.6619 54.8663 L 41.1976 55.0148 L 40.7302 55.1529 L 40.2596 55.2801 L 39.7862 55.3966 L 39.3094 55.5024 L 38.8298 55.5973 L 38.3477 55.6815 L 37.8638 55.7546 L 37.3776 55.8164 L 36.8889 55.8672 L 36.3986 55.9071 L 35.9067 55.9355 L 35.4132 55.9528 L 34.9186 55.9585 L 34.9186 60.3057 L 35.5141 60.2989 L 36.1074 60.2782 L 36.6996 60.2442 L 37.2898 60.1963 L 37.8771 60.1353 L 38.463 60.0605 L 39.0461 59.9726 L 39.6258 59.8714 L 40.2024 59.7572 L 40.7761 59.6299 L 41.3464 59.4896 L 41.9134 59.3362 L 42.4755 59.1704 L 43.0339 58.9918 L 43.5878 58.8005 L 44.1374 58.5967 L 44.6825 58.3801 L 45.2217 58.1513 L 45.7563 57.9104 L 46.2852 57.6573 L 46.8085 57.3919 L 47.3264 57.1141 L 47.8378 56.8247 L 48.3429 56.5234 L 48.8415 56.2105 L 49.333 55.8856 L 49.8178 55.5494 L 50.2957 55.2013 L 50.7657 54.8422 L 51.2289 54.4711 L 51.6841 54.0884 Z M 52.1306 53.6956 C 53.0223 52.8922 53.0938 51.5174 52.2904 50.6256 C 51.4871 49.7339 50.1123 49.6624 49.2205 50.4658 Z" fill="#000000" fill-opacity="1" id="circle_medium" transform="matrix(1 0 0 -1 1 70.1846)" class=""/><path d="M 31.2313 23.5732 C 32.3759 23.2115 33.0103 21.9898 32.6486 20.8451 C 32.2869 19.7005 31.0652 19.0661 29.9205 19.4278 Z Z M 18.8118 34.5923 L 23.1591 34.5923 L 23.1591 34.5923 L 23.1687 34.1209 L 23.197 33.6535 L 23.2438 33.1909 L 23.309 32.7328 L 23.3918 32.2801 L 23.4921 31.8339 L 23.61 31.3926 L 23.7444 30.958 L 23.8958 30.53 L 24.0633 30.1096 L 24.2467 29.6966 L 24.4457 29.2918 L 24.6603 28.8958 L 24.8899 28.5083 L 25.1342 28.1305 L 25.3933 27.7622 L 25.6657 27.4048 L 25.9526 27.0578 L 26.2528 26.7219 L 26.5654 26.3982 L 26.8917 26.0861 L 27.2299 25.7865 L 27.5803 25.5002 L 27.9428 25.2269 L 28.3164 24.9673 L 28.7011 24.7226 L 29.0971 24.4922 L 29.5041 24.2765 L 29.9208 24.0763 L 30.3477 23.8924 L 30.7845 23.7243 L 31.2313 23.5732 L 29.9205 19.4278 L 29.3077 19.6356 L 28.707 19.866 L 28.1191 20.1197 L 27.5448 20.3953 L 26.9853 20.6921 L 26.4402 21.0093 L 25.9092 21.3474 L 25.3945 21.7046 L 24.8958 22.0805 L 24.4128 22.4751 L 23.9471 22.8875 L 23.4989 23.3164 L 23.0678 23.7626 L 22.6553 24.2243 L 22.2613 24.7011 L 21.8857 25.1935 L 21.5303 25.6995 L 21.1941 26.2191 L 20.8783 26.7517 L 20.5832 27.2968 L 20.3088 27.8541 L 20.0563 28.4224 L 19.8258 29.0015 L 19.6177 29.5906 L 19.4323 30.189 L 19.2702 30.7964 L 19.1319 31.4127 L 19.0179 32.036 L 18.9283 32.6665 L 18.864 33.3031 L 18.8249 33.9452 L 18.8118 34.5923 Z Z M 34.7162 50.4969 L 34.7162 46.1497 L 34.7162 46.1497 L 34.1192 46.1344 L 33.5313 46.0899 L 32.953 46.0162 L 32.3844 45.9147 L 31.826 45.7858 L 31.2783 45.6301 L 30.7423 45.449 L 30.2185 45.2421 L 29.7071 45.0111 L 29.2088 44.7557 L 28.7249 44.4776 L 28.256 44.1771 L 27.8028 43.8545 L 27.3657 43.511 L 26.9459 43.1476 L 26.5439 42.7646 L 26.1612 42.3629 L 25.7973 41.9428 L 25.4543 41.506 L 25.132 41.0528 L 24.8309 40.5836 L 24.5529 40.1 L 24.298 39.602 L 24.0667 39.09 L 23.8598 38.5662 L 23.6786 38.0302 L 23.523 37.4825 L 23.394 36.9241 L 23.2926 36.3555 L 23.2189 35.7772 L 23.1744 35.1893 L 23.1591 34.5923 L 18.8118 34.5923 L 18.8323 35.4087 L 18.8938 36.2154 L 18.9947 37.0114 L 19.1347 37.7949 L 19.3124 38.5654 L 19.527 39.3205 L 19.7773 40.0606 L 20.0625 40.784 L 20.3811 41.4882 L 20.7323 42.1744 L 21.1158 42.8411 L 21.5291 43.486 L 21.9722 44.1094 L 22.4444 44.71 L 22.9439 45.2866 L 23.47 45.8385 L 24.0222 46.3649 L 24.5985 46.8643 L 25.1989 47.336 L 25.8222 47.7794 L 26.4679 48.1932 L 27.1338 48.5762 L 27.8198 48.9274 L 28.5245 49.2463 L 29.2479 49.5315 L 29.988 49.7818 L 30.7431 49.9963 L 31.5136 50.1741 L 32.2971 50.3141 L 33.0931 50.415 L 33.8998 50.4765 L 34.7162 50.4969 Z Z M 50.6208 34.5923 L 46.2736 34.5923 L 46.2736 34.5923 L 46.2583 35.1893 L 46.2138 35.7772 L 46.1401 36.3555 L 46.0386 36.9241 L 45.9096 37.4825 L 45.754 38.0302 L 45.5729 38.5662 L 45.366 39.09 L 45.1346 39.602 L 44.8798 40.1 L 44.6017 40.5836 L 44.3007 41.0528 L 43.9784 41.506 L 43.6354 41.9428 L 43.2717 42.3626 L 42.8885 42.7646 L 42.4868 43.1476 L 42.0667 43.511 L 41.6299 43.8545 L 41.1763 44.1771 L 40.7075 44.4776 L 40.2239 44.7557 L 39.7259 45.0108 L 39.2142 45.2421 L 38.6901 45.449 L 38.1543 45.6301 L 37.6064 45.7858 L 37.048 45.9147 L 36.4793 46.0162 L 35.9011 46.0899 L 35.3132 46.1344 L 34.7162 46.1497 L 34.7162 50.4969 L 35.5326 50.4765 L 36.3393 50.415 L 37.1353 50.3141 L 37.9188 50.1741 L 38.6892 49.9963 L 39.4447 49.7818 L 40.1845 49.5315 L 40.9076 49.2463 L 41.6126 48.9277 L 42.2989 48.5762 L 42.965 48.1932 L 43.6102 47.7794 L 44.2338 47.336 L 44.8339 46.8643 L 45.4105 46.3649 L 45.9624 45.8385 L 46.4885 45.2869 L 46.9882 44.71 L 47.4605 44.1094 L 47.9035 43.486 L 48.3168 42.8411 L 48.7003 42.1744 L 49.0516 41.4882 L 49.3702 40.784 L 49.6553 40.0606 L 49.9056 39.3205 L 50.1202 38.5654 L 50.298 37.7949 L 50.438 37.0114 L 50.5389 36.2154 L 50.6004 35.4087 L 50.6208 34.5923 Z Z M 40.5652 19.8023 L 38.9665 23.845 L 39.3761 24.0163 L 39.7763 24.2014 L 40.1666 24.4006 L 40.5471 24.6132 L 40.9181 24.8394 L 41.279 25.0784 L 41.629 25.3295 L 41.9686 25.5932 L 42.2977 25.8684 L 42.6152 26.155 L 42.9214 26.4526 L 43.2159 26.7608 L 43.4991 27.0802 L 43.7698 27.4085 L 44.0277 27.7469 L 44.2738 28.0947 L 44.5068 28.4511 L 44.7262 28.815 L 44.932 29.1875 L 45.1244 29.5682 L 45.303 29.9557 L 45.4674 30.3503 L 45.6171 30.7508 L 45.752 31.1576 L 45.8722 31.5706 L 45.9771 31.9887 L 46.0667 32.4113 L 46.1404 32.8399 L 46.1982 33.2722 L 46.2399 33.7085 L 46.2651 34.1487 L 46.2736 34.5923 L 50.6208 34.5923 L 50.6095 33.9831 L 50.5746 33.378 L 50.5176 32.7773 L 50.4377 32.1823 L 50.3362 31.5933 L 50.2132 31.0102 L 50.0686 30.4339 L 49.9031 29.8655 L 49.7171 29.3051 L 49.5108 28.7532 L 49.2846 28.2101 L 49.0391 27.6769 L 48.7746 27.1545 L 48.4911 26.6414 L 48.189 26.1397 L 47.8687 25.6496 L 47.5313 25.1725 L 47.1759 24.7071 L 46.8031 24.2546 L 46.4145 23.8167 L 46.0089 23.3918 L 45.5871 22.9819 L 45.1494 22.587 L 44.6967 22.208 L 44.229 21.8452 L 43.7462 21.4988 L 43.2499 21.1703 L 42.7394 20.859 L 42.215 20.5659 L 41.6772 20.2918 L 41.1273 20.037 Z M 40.5652 19.8023 C 39.4489 19.3609 38.1858 19.908 37.7444 21.0243 C 37.3031 22.1406 37.8502 23.4037 38.9665 23.845 Z" fill="#000000" fill-opacity="1" id="circle_little" class="" transform="matrix(1 0 0 -1 1 70.1846)"/></g>
            
            </g>
            </svg>