<?xml version="1.0" standalone="no"?>
<svg id="svg-workspace" xmlns="http://www.w3.org/2000/svg" style="transform: translate(135.698px, 524.407px) scale(1.0825);">
                <defs/>
                <g id="main-layer">
                <defs id="GYCO_-_Pure_IoT_Technology_1774363124980_defs_1"/>
                <g id="GYCO_Pure_IoT_Technology_pdf" class=""><defs id="pdf_elem_svg_defs_1"><clipPath id="clippath1" transform=""><path d="M -0.2985 -0.4535 L 1417.0243 -0.4535 L 1417.0243 56.2394 L -0.2985 56.2394 Z" fill="none" clip-rule="evenodd" id="pdf_elem_svg_path_2"/></clipPath></defs><path d="M 50.2248 26.5439 L 48.3321 26.5439 L 48.3321 40.3163 L 53.86 40.3163 C 55.7243 40.2883 57.3171 39.6323 58.638 38.2833 C 59.9873 36.934 60.643 35.3038 60.643 33.4301 C 60.643 31.5564 59.9873 29.9262 58.638 28.5769 C 57.3171 27.2279 55.7243 26.572 53.86 26.5439 Z Z M 45.5403 47.3431 L 45.3526 47.3431 L 45.1843 47.3151 L 44.9966 47.3431 L 44.8282 47.3431 C 43.8537 47.3431 43.0294 46.9871 42.3454 46.3031 C 41.6614 45.6194 41.3053 44.8041 41.3053 43.8205 L 41.3053 11.9375 C 41.3053 10.9443 41.6614 10.12 42.3454 9.436 C 43.0294 8.752 43.8537 8.3866 44.8282 8.3866 C 45.7931 8.3866 46.6081 8.752 47.2921 9.436 C 47.9761 10.12 48.3321 10.9443 48.3321 11.9375 L 48.3321 19.5171 L 53.9629 19.5171 C 57.7293 19.5452 60.971 20.9412 63.6506 23.6489 C 66.3301 26.3472 67.6698 29.6263 67.6698 33.4301 C 67.6698 37.262 66.3301 40.5411 63.6225 43.2394 C 60.9429 45.9471 57.7012 47.3151 53.8787 47.3431 Z" fill="#000000" fill-opacity="1" id="pdf_elem_svg_path_8" class="" transform="matrix(1 0 0 -1 0 56.6929)"/><path d="M 139.4172 46.2376 C 138.7332 45.5536 138.4053 44.7293 138.4053 43.7454 L 138.4053 24.6606 C 138.3772 22.0187 137.4214 19.77 135.5196 17.8775 C 133.6175 16.0036 131.3317 15.0761 128.6708 15.0761 C 126.0006 15.0761 123.7428 16.0036 121.8407 17.9056 C 119.9387 19.798 118.9831 22.0467 118.9551 24.7076 L 118.9551 43.7454 C 118.9551 44.7293 118.6271 45.5536 117.9431 46.2376 C 117.2594 46.931 116.4161 47.287 115.4511 47.287 C 114.4766 47.287 113.6523 46.931 112.9683 46.2376 C 112.2843 45.5536 111.9283 44.7293 111.9283 43.7454 L 111.9283 24.6044 C 111.9563 20.0137 113.6239 16.1161 116.875 12.8837 C 120.1357 9.6608 124.0705 8.0493 128.6708 8.0493 C 133.2615 8.0493 137.1966 9.6608 140.457 12.8837 C 143.708 16.1161 145.3759 20.0137 145.4321 24.6044 L 145.4321 43.7454 C 145.4321 44.7293 145.076 45.5536 144.392 46.2376 C 143.708 46.931 142.865 47.287 141.9092 47.287 C 140.9536 47.287 140.1009 46.931 139.4172 46.2376" fill="#000000" fill-opacity="1" id="pdf_elem_svg_path_9" class="" transform="matrix(1 0 0 -1 0 56.6929)"/><path d="M 199.434 28.455 L 199.434 40.3163 L 207.0791 40.3163 C 208.6812 40.2883 210.0586 39.7168 211.2202 38.5549 C 212.3541 37.3932 212.9255 36.0159 212.9255 34.3857 C 212.9255 32.7555 212.3541 31.3784 211.2202 30.2165 C 210.0586 29.0548 208.6812 28.4834 207.051 28.455 Z Z M 216.2047 43.5112 C 213.6937 46.0596 210.6675 47.3151 207.1074 47.3431 L 196.6422 47.3431 L 196.4546 47.3431 L 196.2862 47.3151 L 196.0985 47.3431 L 195.9301 47.3431 C 194.9556 47.3431 194.1313 47.0151 193.4473 46.3314 C 192.7633 45.6474 192.4072 44.8041 192.4072 43.8392 L 192.4072 11.9282 C 192.4072 10.9443 192.7633 10.12 193.4473 9.436 C 194.1313 8.7426 194.9556 8.3866 195.9301 8.3866 C 196.8951 8.3866 197.71 8.7426 198.394 9.436 C 199.078 10.12 199.434 10.9443 199.434 11.9282 L 199.434 21.4282 L 204.0999 21.4282 L 212.9255 9.792 C 213.5344 9.0238 214.2933 8.5552 215.2491 8.4146 C 216.2047 8.2834 217.0854 8.5272 217.8723 9.108 C 218.6408 9.6795 219.0716 10.476 219.2122 11.4409 C 219.3435 12.3965 219.1277 13.2772 218.5282 14.0454 L 212.1854 22.4963 C 214.509 23.5083 216.3733 25.0637 217.7881 27.1715 C 219.2403 29.3357 219.9523 31.7625 219.9523 34.3857 C 219.9523 37.946 218.6969 41.0003 216.2047 43.5112" fill="#000000" fill-opacity="1" id="pdf_elem_svg_path_10" transform="matrix(1 0 0 -1 0 56.6929)"/><path d="M 288.8793 40.3163 C 289.8726 40.3163 290.6969 40.6723 291.3809 41.3563 C 292.0649 42.0403 292.4209 42.8647 292.4209 43.8205 C 292.4209 44.8041 292.0649 45.6194 291.3809 46.3031 C 290.6969 46.9871 289.8726 47.3431 288.8793 47.3431 L 270.4224 47.3431 C 269.4478 47.3431 268.6235 46.9871 267.9395 46.3031 C 267.2555 45.6194 266.8995 44.8041 266.8995 43.8205 L 266.8995 11.9095 C 266.8995 10.9349 267.2555 10.1106 267.9395 9.4266 C 268.6235 8.7426 269.4478 8.3866 270.4224 8.3866 L 288.8793 8.3866 C 289.8726 8.3866 290.6969 8.7426 291.3809 9.4266 C 292.0649 10.1106 292.4209 10.9349 292.4209 11.9095 C 292.4209 12.8744 292.0649 13.7177 291.3809 14.4014 C 290.6969 15.0854 289.8726 15.4134 288.8793 15.4134 L 273.9263 15.4134 L 273.9263 24.4077 L 285.2909 24.4077 C 286.2748 24.4077 287.0991 24.7637 287.7831 25.4477 C 288.4671 26.1315 288.8232 26.9561 288.8232 27.9303 C 288.8232 28.8955 288.4671 29.7105 287.7831 30.3945 C 287.0991 31.0785 286.2748 31.4345 285.2909 31.4345 L 273.9263 31.4345 L 273.9263 40.3163 Z" fill="#000000" fill-opacity="1" id="pdf_elem_svg_path_11" transform="matrix(1 0 0 -1 0 56.6929)"/><path d="M 390.85 46.2937 C 390.166 45.61 389.81 44.7854 389.81 43.8018 L 389.81 11.9282 C 389.81 10.9443 390.166 10.12 390.85 9.436 C 391.534 8.7426 392.3583 8.3866 393.3329 8.3866 C 394.2978 8.3866 395.1128 8.7426 395.7968 9.436 C 396.4808 10.12 396.8368 10.9443 396.8368 11.9282 L 396.8368 43.8018 C 396.8368 44.7854 396.4808 45.61 395.7968 46.2937 C 395.1128 46.9871 394.2978 47.3431 393.3329 47.3431 C 392.3583 47.3431 391.534 46.9871 390.85 46.2937" fill="#000000" fill-opacity="1" id="pdf_elem_svg_path_12" transform="matrix(1 0 0 -1 0 56.6929)"/><path d="M 453.003 18.7019 C 450.4734 21.2502 449.2086 24.3045 449.2086 27.8742 C 449.2086 31.4532 450.4734 34.5076 453.003 37.0278 C 455.5514 39.5575 458.6057 40.8223 462.1754 40.8223 C 465.7544 40.8223 468.8087 39.5575 471.329 37.0278 C 473.8586 34.5076 475.1235 31.4532 475.1235 27.8742 C 475.1235 24.3045 473.8586 21.2502 471.329 18.7019 C 468.8087 16.1722 465.7544 14.9074 462.1754 14.9074 C 458.6057 14.9074 455.5514 16.1722 453.003 18.7019 Z M 448.0279 42.031 C 444.1212 38.1053 442.1818 33.402 442.1818 27.8742 C 442.1818 22.356 444.1212 17.6244 448.0279 13.7271 C 451.9256 9.8201 456.6569 7.8806 462.1754 7.8806 C 467.7032 7.8806 472.4065 9.8201 476.3322 13.7271 C 480.2108 17.6244 482.1503 22.356 482.1503 27.8742 C 482.1503 33.402 480.2108 38.1053 476.3322 42.031 C 472.4065 45.9096 467.7032 47.8491 462.1754 47.8491 C 456.6569 47.8491 451.9256 45.9096 448.0279 42.031" fill="#000000" fill-opacity="1" id="pdf_elem_svg_path_13" transform="matrix(1 0 0 -1 0 56.6929)"/><path d="M 525.8089 47.3431 C 524.825 47.3431 524.0007 46.9871 523.3073 46.3031 C 522.6233 45.6194 522.2673 44.8041 522.2673 43.8205 C 522.2673 42.8647 522.6233 42.0403 523.3073 41.3563 C 524.0007 40.6723 524.825 40.3163 525.8089 40.3163 L 533.4633 40.3163 L 533.4633 11.9375 C 533.4633 10.9443 533.8193 10.12 534.5033 9.436 C 535.1873 8.752 536.0304 8.3866 536.9862 8.3866 C 537.9511 8.3866 538.7944 8.752 539.4781 9.436 C 540.1621 10.12 540.4901 10.9443 540.4901 11.9375 L 540.4901 40.3163 L 548.1729 40.3163 C 549.1284 40.3163 549.9811 40.6723 550.6744 41.3563 C 551.3581 42.0403 551.7142 42.8647 551.7142 43.8205 C 551.7142 44.8041 551.3581 45.6194 550.6744 46.3031 C 549.9811 46.9871 549.1284 47.3431 548.1729 47.3431 Z" fill="#000000" fill-opacity="1" id="pdf_elem_svg_path_14" transform="matrix(1 0 0 -1 0 56.6929)"/><path d="M 652.6451 47.3431 C 651.6612 47.3431 650.8369 46.9871 650.1436 46.3031 C 649.4596 45.6194 649.1035 44.8041 649.1035 43.8205 C 649.1035 42.8647 649.4596 42.0403 650.1436 41.3563 C 650.8369 40.6723 651.6612 40.3163 652.6451 40.3163 L 660.2995 40.3163 L 660.2995 11.9375 C 660.2995 10.9443 660.6556 10.12 661.3396 9.436 C 662.0236 8.752 662.8666 8.3866 663.8224 8.3866 C 664.7873 8.3866 665.6306 8.752 666.3144 9.436 C 666.9984 10.12 667.3263 10.9443 667.3263 11.9375 L 667.3263 40.3163 L 675.0091 40.3163 C 675.9646 40.3163 676.8173 40.6723 677.5106 41.3563 C 678.1944 42.0403 678.5504 42.8647 678.5504 43.8205 C 678.5504 44.8041 678.1944 45.6194 677.5106 46.3031 C 676.8173 46.9871 675.9646 47.3431 675.0091 47.3431 Z" fill="#000000" fill-opacity="1" id="pdf_elem_svg_path_15" transform="matrix(1 0 0 -1 0 56.6929)"/><path d="M 744.5169 40.3163 C 745.5101 40.3163 746.3344 40.6723 747.0184 41.3563 C 747.7024 42.0403 748.0585 42.8647 748.0585 43.8205 C 748.0585 44.8041 747.7024 45.6194 747.0184 46.3031 C 746.3344 46.9871 745.5101 47.3431 744.5169 47.3431 L 726.0599 47.3431 C 725.0854 47.3431 724.261 46.9871 723.577 46.3031 C 722.893 45.6194 722.537 44.8041 722.537 43.8205 L 722.537 11.9095 C 722.537 10.9349 722.893 10.1106 723.577 9.4266 C 724.261 8.7426 725.0854 8.3866 726.0599 8.3866 L 744.5169 8.3866 C 745.5101 8.3866 746.3344 8.7426 747.0184 9.4266 C 747.7024 10.1106 748.0585 10.9349 748.0585 11.9095 C 748.0585 12.8744 747.7024 13.7177 747.0184 14.4014 C 746.3344 15.0854 745.5101 15.4134 744.5169 15.4134 L 729.5638 15.4134 L 729.5638 24.4077 L 740.9285 24.4077 C 741.9124 24.4077 742.7367 24.7637 743.4207 25.4477 C 744.1047 26.1315 744.4607 26.9561 744.4607 27.9303 C 744.4607 28.8955 744.1047 29.7105 743.4207 30.3945 C 742.7367 31.0785 741.9124 31.4345 740.9285 31.4345 L 729.5638 31.4345 L 729.5638 40.3163 Z" fill="#000000" fill-opacity="1" id="pdf_elem_svg_path_16" transform="matrix(1 0 0 -1 0 56.6929)"/><path d="M 809.818 14.9074 C 806.2577 14.9074 803.2034 16.1722 800.655 18.7019 C 798.1254 21.2502 796.8699 24.3045 796.8699 27.8742 C 796.8699 31.4532 798.1254 34.5076 800.655 37.0278 C 803.2034 39.5575 806.2577 40.8223 809.818 40.8223 C 812.9191 40.8223 815.6455 39.8387 818.0252 37.8618 C 818.7936 37.2246 819.6744 36.9811 820.6393 37.0559 C 821.5948 37.1684 822.3914 37.6087 823.0003 38.3488 C 823.6281 39.0983 823.8716 39.9696 823.7965 40.9348 C 823.7123 41.8904 823.2721 42.6866 822.5317 43.3145 C 818.8498 46.3408 814.6244 47.8491 809.818 47.8491 C 804.3089 47.8491 799.5869 45.9096 795.6893 42.031 C 791.7826 38.1053 789.8431 33.402 789.8431 27.8742 C 789.8431 22.356 791.7826 17.6244 795.6893 13.7271 C 799.5869 9.8201 804.3089 7.8806 809.818 7.8806 C 814.9521 7.8806 819.4306 9.6046 823.2437 13.0431 C 823.9839 13.6987 824.3683 14.5233 824.3963 15.4789 C 824.4524 16.4721 824.1525 17.3248 823.4875 18.0369 C 822.8316 18.7489 822.0073 19.133 821.0514 19.1891 C 820.0865 19.2172 819.2339 18.9173 818.5218 18.2897 C 816.0483 16.0316 813.1439 14.9074 809.818 14.9074" fill="#000000" fill-opacity="1" id="pdf_elem_svg_path_17" transform="matrix(1 0 0 -1 0 56.6929)"/><path d="M 898.1484 46.2937 C 897.4644 45.61 897.1084 44.7854 897.1084 43.7924 L 897.1084 31.4345 L 878.5015 31.4345 L 878.5015 43.7924 C 878.5015 44.7854 878.1454 45.61 877.4614 46.2937 C 876.7774 46.9777 875.9625 47.3431 874.9976 47.3431 C 874.023 47.3431 873.1987 46.9777 872.5147 46.2937 C 871.8307 45.61 871.4747 44.7854 871.4747 43.7924 L 871.4747 11.9375 C 871.4747 10.9443 871.8307 10.12 872.5147 9.436 C 873.1987 8.752 874.023 8.3866 874.9976 8.3866 C 875.9625 8.3866 876.7774 8.752 877.4614 9.436 C 878.1454 10.12 878.5015 10.9443 878.5015 11.9375 L 878.5015 24.4077 L 897.1084 24.4077 L 897.1084 11.9375 C 897.1084 10.9443 897.4644 10.12 898.1484 9.436 C 898.8324 8.752 899.6757 8.3866 900.6313 8.3866 C 901.5962 8.3866 902.4395 8.752 903.1235 9.436 C 903.8072 10.12 904.1352 10.9443 904.1352 11.9375 L 904.1352 43.7924 C 904.1352 44.7854 903.8072 45.61 903.1235 46.2937 C 902.4395 46.9777 901.5962 47.3431 900.6313 47.3431 C 899.6757 47.3431 898.8324 46.9777 898.1484 46.2937" fill="#000000" fill-opacity="1" id="pdf_elem_svg_path_18" transform="matrix(1 0 0 -1 0 56.6929)"/><path d="M 977.775 46.3221 C 977.091 45.6381 976.735 44.7854 976.735 43.8299 L 976.735 21.9529 L 957.3599 46.0222 C 956.8913 46.5936 956.2918 47.0058 955.5891 47.2025 C 954.849 47.3899 954.1369 47.3899 953.4529 47.1464 C 952.7409 46.9029 952.1694 46.4624 951.7572 45.8535 C 951.3261 45.254 951.1013 44.57 951.1013 43.8299 L 951.1013 11.9282 C 951.1013 10.9443 951.4573 10.12 952.1413 9.436 C 952.8253 8.7426 953.6496 8.3866 954.6242 8.3866 C 955.5891 8.3866 956.4041 8.7426 957.0881 9.436 C 957.7721 10.12 958.1281 10.9443 958.1281 11.9282 L 958.1281 33.7768 L 977.5315 9.7075 C 977.9905 9.1267 978.5713 8.7239 979.3023 8.5272 C 980.0141 8.3398 980.7262 8.3398 981.4382 8.5833 C 982.1222 8.8268 982.6937 9.2673 983.1342 9.8762 C 983.537 10.5041 983.7618 11.1881 983.7618 11.9282 L 983.7618 43.8299 C 983.7618 44.7854 983.4338 45.6381 982.7501 46.3221 C 982.0661 47.0058 981.2228 47.3431 980.2579 47.3431 C 979.3023 47.3431 978.459 47.0058 977.775 46.3221" fill="#000000" fill-opacity="1" id="pdf_elem_svg_path_19" transform="matrix(1 0 0 -1 0 56.6929)"/><path d="M 1039.9003 18.7019 C 1037.3706 21.2502 1036.1058 24.3045 1036.1058 27.8742 C 1036.1058 31.4532 1037.3706 34.5076 1039.9003 37.0278 C 1042.4486 39.5575 1045.5029 40.8223 1049.0726 40.8223 C 1052.6516 40.8223 1055.706 39.5575 1058.2262 37.0278 C 1060.7559 34.5076 1062.0207 31.4532 1062.0207 27.8742 C 1062.0207 24.3045 1060.7559 21.2502 1058.2262 18.7019 C 1055.706 16.1722 1052.6516 14.9074 1049.0726 14.9074 C 1045.5029 14.9074 1042.4486 16.1722 1039.9003 18.7019 Z M 1034.9252 42.031 C 1031.0185 38.1053 1029.079 33.402 1029.079 27.8742 C 1029.079 22.356 1031.0185 17.6244 1034.9252 13.7271 C 1038.8228 9.8201 1043.5541 7.8806 1049.0726 7.8806 C 1054.6004 7.8806 1059.3037 9.8201 1063.2294 13.7271 C 1067.108 17.6244 1069.0475 22.356 1069.0475 27.8742 C 1069.0475 33.402 1067.108 38.1053 1063.2294 42.031 C 1059.3037 45.9096 1054.6004 47.8491 1049.0726 47.8491 C 1043.5541 47.8491 1038.8228 45.9096 1034.9252 42.031" fill="#000000" fill-opacity="1" id="pdf_elem_svg_path_20" transform="matrix(1 0 0 -1 0 56.6929)"/><path d="M 1121.1384 15.4134 L 1121.1384 43.7924 C 1121.1384 44.7854 1120.7823 45.61 1120.0983 46.2937 C 1119.4143 46.9871 1118.5994 47.3431 1117.6345 47.3431 C 1116.6599 47.3431 1115.8356 46.9871 1115.1516 46.2937 C 1114.4676 45.61 1114.1116 44.7854 1114.1116 43.7924 L 1114.1116 11.9095 C 1114.1116 10.9349 1114.4676 10.1106 1115.1516 9.4266 C 1115.8356 8.7426 1116.6599 8.3866 1117.6345 8.3866 L 1133.7585 8.3866 C 1134.7234 8.3866 1135.5761 8.7426 1136.2601 9.4266 C 1136.9441 10.1106 1137.272 10.9349 1137.272 11.9095 C 1137.272 12.8744 1136.9441 13.7177 1136.2601 14.4014 C 1135.5761 15.0854 1134.7234 15.4134 1133.7585 15.4134 Z" fill="#000000" fill-opacity="1" id="pdf_elem_svg_path_21" transform="matrix(1 0 0 -1 0 56.6929)"/><path d="M 1190.4214 18.7019 C 1187.8917 21.2502 1186.6269 24.3045 1186.6269 27.8742 C 1186.6269 31.4532 1187.8917 34.5076 1190.4214 37.0278 C 1192.9697 39.5575 1196.024 40.8223 1199.5937 40.8223 C 1203.1727 40.8223 1206.2271 39.5575 1208.7473 37.0278 C 1211.277 34.5076 1212.5418 31.4532 1212.5418 27.8742 C 1212.5418 24.3045 1211.277 21.2502 1208.7473 18.7019 C 1206.2271 16.1722 1203.1727 14.9074 1199.5937 14.9074 C 1196.024 14.9074 1192.9697 16.1722 1190.4214 18.7019 Z M 1185.4463 42.031 C 1181.5396 38.1053 1179.6001 33.402 1179.6001 27.8742 C 1179.6001 22.356 1181.5396 17.6244 1185.4463 13.7271 C 1189.3439 9.8201 1194.0752 7.8806 1199.5937 7.8806 C 1205.1215 7.8806 1209.8248 9.8201 1213.7505 13.7271 C 1217.6291 17.6244 1219.5686 22.356 1219.5686 27.8742 C 1219.5686 33.402 1217.6291 38.1053 1213.7505 42.031 C 1209.8248 45.9096 1205.1215 47.8491 1199.5937 47.8491 C 1194.0752 47.8491 1189.3439 45.9096 1185.4463 42.031" fill="#000000" fill-opacity="1" id="pdf_elem_svg_path_22" transform="matrix(1 0 0 -1 0 56.6929)"/><path d="M 1292.4119 27.2466 C 1291.7186 26.5533 1291.3625 25.7287 1291.3625 24.7357 L 1291.3625 17.3529 C 1289.1138 15.732 1286.6029 14.9074 1283.8297 14.9074 C 1280.2507 14.9074 1277.1964 16.1722 1274.6387 18.7019 C 1272.109 21.2692 1270.8442 24.3232 1270.8442 27.9023 C 1270.8442 31.4906 1272.109 34.545 1274.6387 37.084 C 1277.1964 39.6136 1280.2507 40.8784 1283.8297 40.8784 C 1286.9402 40.8784 1289.6572 39.8948 1292.0559 37.9086 C 1292.8241 37.2713 1293.6954 37.0278 1294.6603 37.112 C 1295.6159 37.2152 1296.4124 37.6554 1297.012 38.4052 C 1297.6492 39.1453 1297.8927 40.026 1297.8085 40.991 C 1297.7334 41.9465 1297.2932 42.7431 1296.553 43.3706 C 1292.8708 46.3969 1288.6455 47.9052 1283.8297 47.9052 C 1278.2925 47.9052 1273.5612 45.966 1269.6636 42.0871 C 1265.7569 38.1521 1263.8174 33.4488 1263.8174 27.9023 C 1263.8174 22.3654 1265.7569 17.6338 1269.6636 13.7271 C 1273.5612 9.8201 1278.2925 7.8806 1283.8297 7.8806 C 1288.9735 7.8806 1293.48 9.6046 1297.2932 13.0431 C 1298.0614 13.7551 1298.4454 14.6265 1298.4454 15.6475 L 1298.4454 24.7357 C 1298.4454 25.7287 1298.0894 26.5533 1297.3961 27.2466 C 1296.7123 27.9303 1295.8597 28.296 1294.9041 28.296 C 1293.9483 28.296 1293.0959 27.9303 1292.4119 27.2466" fill="#000000" fill-opacity="1" id="pdf_elem_svg_path_23" transform="matrix(1 0 0 -1 0 56.6929)"/><path d="M 1370.9701 47.2589 C 1370.0146 47.0341 1369.2932 46.5188 1368.7778 45.6942 L 1359.0995 30.1884 L 1349.4308 45.6942 C 1348.9061 46.5188 1348.194 47.0341 1347.2382 47.2589 C 1346.2733 47.4744 1345.3926 47.3431 1344.5776 46.8184 C 1343.753 46.2937 1343.2283 45.5536 1343.0129 44.598 C 1342.7881 43.6612 1342.9287 42.7805 1343.4437 41.9278 L 1355.5769 22.4963 L 1355.5769 11.9282 C 1355.5769 10.9443 1355.9329 10.12 1356.6169 9.436 C 1357.3006 8.7426 1358.1439 8.3866 1359.0995 8.3866 C 1360.0647 8.3866 1360.9077 8.7426 1361.5917 9.436 C 1362.2757 10.12 1362.6037 10.9443 1362.6037 11.9282 L 1362.6037 22.4963 L 1374.7552 41.9278 C 1375.2799 42.7805 1375.4205 43.6612 1375.1957 44.598 C 1374.98 45.5536 1374.4556 46.2937 1373.631 46.8184 C 1372.8064 47.3431 1371.9353 47.4744 1370.9701 47.2589" fill="#000000" fill-opacity="1" id="pdf_elem_svg_path_24" transform="matrix(1 0 0 -1 0 56.6929)"/><path d="M 339.6424 18.2733 C 334.3297 18.2733 330.0228 22.5802 330.0228 27.8932 C 330.0228 33.2059 334.3297 37.5129 339.6424 37.5129 C 344.9554 37.5129 349.2624 33.2059 349.2624 27.8932 C 349.2624 22.5802 344.9554 18.2733 339.6424 18.2733" fill="#ff6600" fill-rule="evenodd" fill-opacity="1" id="pdf_elem_svg_path_25" class="" transform="matrix(1 0 0 -1 0 56.6929)"/><path d="M 600.9718 18.2733 C 595.6591 18.2733 591.3522 22.5802 591.3522 27.8932 C 591.3522 33.2059 595.6591 37.5129 600.9718 37.5129 C 606.2848 37.5129 610.5915 33.2059 610.5915 27.8932 C 610.5915 22.5802 606.2848 18.2733 600.9718 18.2733" fill="#ff6600" fill-rule="evenodd" fill-opacity="1" id="pdf_elem_svg_path_26" class="" transform="matrix(1 0 0 -1 0 56.6929)"/></g>
            </g>
            </svg>