<?xml version="1.0" standalone="no"?>
<svg id="svg-workspace" xmlns="http://www.w3.org/2000/svg" viewBox="-1 0 193 53" width="193" height="53">
                

                <!-- Tavola da disegno / Artboard Visivo -->
                
                
                <!-- Indicatore dell'Origine (0,0) matematico -->
                

                <g id="main-layer">
                <defs id="gyco_scritta_defs_1"/>
                
                <defs id="GYCO_-_Scritta_1774362084620_1774362112452_defs_1"/>
                
                <defs id="GYCO_-_Scritta_1774362084620_defs_1"/>
                
                <defs id="GYCO_-_Scritta_defs_1"/>
                
                <defs id="export_1774361407988_defs_1"/>
                <g id="main-layer">
                <defs id="export_1774352584910_defs_1"/>
                <g id="main-layer"/>
            </g>
            
            <g id="GYCO_scritta" class=""><path d="M 169.8418 20.802 C 165.0606 20.802 161.1848 24.6779 161.1848 29.4591 C 161.1848 34.24 165.0606 38.1158 169.8418 38.1158 C 174.6227 38.1158 178.4985 34.24 178.4985 29.4591 C 178.4985 24.6779 174.6227 20.802 169.8418 20.802" fill="#ff6600" fill-rule="evenodd" fill-opacity="1" id="orange_dot" class="" transform="matrix(1 0 0 -1 0 52.7641)"/><path d="M 153.4521 14.2475 C 150.1172 17.6071 148.4498 21.6337 148.4498 26.3398 C 148.4498 31.0581 150.1172 35.0844 153.4521 38.4072 C 156.8117 41.7419 160.8384 43.4095 165.5442 43.4095 C 170.2627 43.4095 174.289 41.7419 177.6118 38.4072 C 180.9465 35.0844 182.6141 31.0581 182.6141 26.3398 C 182.6141 21.6337 180.9465 17.6071 177.6118 14.2475 C 174.289 10.9125 170.2627 9.2452 165.5442 9.2452 C 160.8384 9.2452 156.8117 10.9125 153.4521 14.2475 Z M 146.8936 45.0028 C 141.7431 39.8276 139.1862 33.6271 139.1862 26.3398 C 139.1862 19.0647 141.7431 12.8271 146.8936 7.689 C 152.0317 2.5384 158.2693 -0.0184 165.5442 -0.0184 C 172.8317 -0.0184 179.0323 2.5384 184.2075 7.689 C 189.3209 12.8271 191.8777 19.0647 191.8777 26.3398 C 191.8777 33.6271 189.3209 39.8276 184.2075 45.0028 C 179.0323 50.1163 172.8317 52.6731 165.5442 52.6731 C 158.2693 52.6731 152.0317 50.1163 146.8936 45.0028" fill="#000000" fill-opacity="1" id="O" class="" transform="matrix(1 0 0 -1 0 52.7641)"/><path d="M 118.0032 9.2452 C 113.3096 9.2452 109.2832 10.9125 105.9236 14.2475 C 102.5887 17.6071 100.9335 21.6337 100.9335 26.3398 C 100.9335 31.0581 102.5887 35.0844 105.9236 38.4072 C 109.2832 41.7419 113.3096 43.4095 118.0032 43.4095 C 122.0916 43.4095 125.6859 42.1126 128.8233 39.5065 C 129.8361 38.6666 130.9969 38.3454 132.2694 38.444 C 133.5291 38.5923 134.5791 39.1728 135.3818 40.1488 C 136.2093 41.1367 136.5304 42.2855 136.4318 43.5577 C 136.3207 44.8174 135.7401 45.8674 134.7642 46.6948 C 129.9101 50.6846 124.3395 52.6731 118.0032 52.6731 C 110.7405 52.6731 104.5154 50.1163 99.3773 45.0028 C 94.2267 39.8276 91.6699 33.6271 91.6699 26.3398 C 91.6699 19.0647 94.2267 12.8271 99.3773 7.689 C 104.5154 2.5384 110.7405 -0.0184 118.0032 -0.0184 C 124.772 -0.0184 130.676 2.2544 135.703 6.7873 C 136.6787 7.6518 137.1852 8.7389 137.2221 9.9986 C 137.2963 11.308 136.9012 12.4319 136.0242 13.3707 C 135.1596 14.3093 134.0725 14.8158 132.8128 14.8898 C 131.5406 14.927 130.4167 14.5315 129.4778 13.7041 C 126.2171 10.7274 122.3881 9.2452 118.0032 9.2452" fill="#000000" fill-opacity="1" id="C" class="" transform="matrix(1 0 0 -1 0 52.7641)"/><path d="M 86.3833 51.895 C 85.1236 51.5985 84.1725 50.919 83.4931 49.8322 L 70.734 29.3905 L 57.9872 49.8322 C 57.2956 50.919 56.3567 51.5985 55.097 51.895 C 53.8248 52.179 52.6637 52.0061 51.5891 51.3145 C 50.5023 50.6228 49.8107 49.6468 49.5264 48.3871 C 49.2301 47.1521 49.4152 45.991 50.0947 44.8671 L 66.0898 19.2498 L 66.0898 5.3175 C 66.0898 4.0207 66.5592 2.9336 67.4609 2.0319 C 68.3626 1.118 69.474 0.6486 70.734 0.6486 C 72.0062 0.6486 73.1177 1.118 74.0194 2.0319 C 74.9211 2.9336 75.3534 4.0207 75.3534 5.3175 L 75.3534 19.2498 L 91.3734 44.8671 C 92.065 45.991 92.2504 47.1521 91.9539 48.3871 C 91.6699 49.6468 90.978 50.6228 89.8911 51.3145 C 88.8043 52.0061 87.6555 52.179 86.3833 51.895" fill="#000000" fill-opacity="1" id="Y" class="" transform="matrix(1 0 0 -1 0 52.7641)"/><path d="M 37.4961 25.5121 C 36.582 24.5982 36.1128 23.5111 36.1128 22.2018 L 36.1128 12.469 C 33.1483 10.332 29.838 9.2452 26.1822 9.2452 C 21.4639 9.2452 17.4373 10.9125 14.0652 14.2475 C 10.7303 17.6318 9.0629 21.6584 9.0629 26.3767 C 9.0629 31.1074 10.7303 35.134 14.0652 38.4812 C 17.4373 41.8161 21.4639 43.4835 26.1822 43.4835 C 30.2828 43.4835 33.8647 42.1866 37.0267 39.5683 C 38.0395 38.7283 39.1881 38.4072 40.4603 38.5183 C 41.7203 38.6541 42.7703 39.2346 43.5606 40.2228 C 44.4005 41.1985 44.7216 42.3595 44.6105 43.6317 C 44.5116 44.8917 43.9313 45.9414 42.9554 46.7691 C 38.1013 50.7586 32.5307 52.7471 26.1822 52.7471 C 18.8824 52.7471 12.6448 50.1905 7.5067 45.0768 C 2.3562 39.8891 -0.2007 33.6889 -0.2007 26.3767 C -0.2007 19.0769 2.3562 12.8395 7.5067 7.689 C 12.6448 2.5384 18.8824 -0.0184 26.1822 -0.0184 C 32.963 -0.0184 38.9041 2.2544 43.9313 6.7873 C 44.9442 7.7261 45.4504 8.8747 45.4504 10.2209 L 45.4504 22.2018 C 45.4504 23.5111 44.981 24.5982 44.0671 25.5121 C 43.1654 26.4138 42.0415 26.8954 40.7815 26.8954 C 39.5218 26.8954 38.3978 26.4138 37.4961 25.5121" fill="#000000" fill-opacity="1" id="G" class="" transform="matrix(1 0 0 -1 0 52.7641)"/></g>
            
            
            </g>
            </svg>