<?xml version="1.0" standalone="no"?>
<svg id="svg-workspace" xmlns="http://www.w3.org/2000/svg" viewBox="-1 0 575 17" width="575" height="17">
                

                
                
                
                
                

                <g id="main-layer">
                

                
                
                
                
                

                <g id="PDF_GYCO___Pure_AIoT_Technology_pdf"><defs id="pdf_elem_svg_defs_1"><clipPath id="clippath2" transform=""><path d="M -0.036 -0.1071 L 574.9322 -0.1071 L 574.9322 16.4784 L -0.036 16.4784 Z" fill="none" clip-rule="evenodd" id="pdf_elem_svg_path_2"/></clipPath></defs><g transform="matrix(1 0 0 -1 0 16.5855)" id="pdf_elem_svg_g_3"><g clip-path="url(#clippath2)" id="pdf_elem_svg_g_6"><g transform="" id="pdf_elem_svg_g_7"><path d="M 3.6607 7.6263 L 2.8763 7.6263 L 2.8763 13.3336 L 5.1673 13.3336 C 5.9397 13.322 6.5999 13.0501 7.1473 12.4911 C 7.7063 11.9322 7.9781 11.2567 7.9781 10.48 C 7.9781 9.7036 7.7063 9.0281 7.1473 8.4688 C 6.5999 7.9098 5.9397 7.638 5.1673 7.6263 Z Z M 1.7195 16.2456 L 1.6418 16.2456 L 1.5718 16.234 L 1.4941 16.2456 L 1.4244 16.2456 C 1.0205 16.2456 0.6789 16.098 0.3954 15.8145 C 0.112 15.5313 -0.0354 15.1934 -0.0354 14.7858 L -0.0354 1.5735 C -0.0354 1.1619 0.112 0.8203 0.3954 0.5369 C 0.6789 0.2534 1.0205 0.102 1.4244 0.102 C 1.8244 0.102 2.162 0.2534 2.4454 0.5369 C 2.7289 0.8203 2.8763 1.1619 2.8763 1.5735 L 2.8763 4.7146 L 5.2098 4.7146 C 6.7706 4.7262 8.1139 5.3048 9.2245 6.4267 C 10.3348 7.545 10.8899 8.9036 10.8899 10.48 C 10.8899 12.0679 10.3348 13.4269 9.2126 14.5451 C 8.1023 15.6671 6.7589 16.234 5.1749 16.2456 Z" fill="#000000" fill-opacity="1" id="pdf_elem_svg_path_8"/><path d="M 40.621 15.7876 C 40.3376 15.5041 40.2018 15.1622 40.2018 14.7546 L 40.2018 6.846 C 40.1902 5.7512 39.7942 4.8192 39.0059 4.0351 C 38.2178 3.2584 37.2705 2.874 36.1678 2.874 C 35.0612 2.874 34.1254 3.2584 33.3374 4.0467 C 32.5494 4.8311 32.1534 5.7628 32.1415 6.8655 L 32.1415 14.7546 C 32.1415 15.1622 32.0057 15.5041 31.7222 15.7876 C 31.4388 16.0747 31.0895 16.2224 30.6896 16.2224 C 30.2856 16.2224 29.9441 16.0747 29.6606 15.7876 C 29.3771 15.5041 29.2297 15.1622 29.2297 14.7546 L 29.2297 6.8227 C 29.2414 4.9204 29.9324 3.3052 31.2797 1.9655 C 32.6307 0.6301 34.2615 -0.0377 36.1678 -0.0377 C 38.0701 -0.0377 39.7009 0.6301 41.0519 1.9655 C 42.3992 3.3052 43.0903 4.9204 43.1135 6.8227 L 43.1135 14.7546 C 43.1135 15.1622 42.9661 15.5041 42.6827 15.7876 C 42.3992 16.0747 42.0497 16.2224 41.6537 16.2224 C 41.2577 16.2224 40.9045 16.0747 40.621 15.7876" fill="#000000" fill-opacity="1" id="pdf_elem_svg_path_9"/><path d="M 65.4911 8.4183 L 65.4911 13.3336 L 68.6594 13.3336 C 69.3232 13.322 69.8941 13.0853 70.3755 12.6037 C 70.8452 12.1224 71.0821 11.5515 71.0821 10.876 C 71.0821 10.2005 70.8452 9.6299 70.3755 9.1483 C 69.8941 8.6669 69.3232 8.43 68.6477 8.4183 Z Z M 72.4411 14.6577 C 71.4005 15.7136 70.1464 16.234 68.671 16.2456 L 64.3343 16.2456 L 64.2566 16.2456 L 64.1866 16.234 L 64.1089 16.2456 L 64.0392 16.2456 C 63.6352 16.2456 63.2937 16.1096 63.0102 15.8261 C 62.7267 15.5429 62.5793 15.1934 62.5793 14.7934 L 62.5793 1.5695 C 62.5793 1.1619 62.7267 0.8203 63.0102 0.5369 C 63.2937 0.2494 63.6352 0.102 64.0392 0.102 C 64.4391 0.102 64.7768 0.2494 65.0602 0.5369 C 65.3437 0.8203 65.4911 1.1619 65.4911 1.5695 L 65.4911 5.5066 L 67.4246 5.5066 L 71.0821 0.6843 C 71.3344 0.366 71.6488 0.1721 72.0448 0.1137 C 72.4411 0.0592 72.8059 0.1602 73.1322 0.4011 C 73.4505 0.6378 73.6291 0.9677 73.6872 1.3677 C 73.7416 1.7637 73.6523 2.1288 73.4037 2.4471 L 70.7754 5.9491 C 71.7381 6.3683 72.5108 7.0129 73.097 7.8866 C 73.6988 8.7834 73.9939 9.7889 73.9939 10.876 C 73.9939 12.3514 73.4737 13.6171 72.4411 14.6577" fill="#000000" fill-opacity="1" id="pdf_elem_svg_path_10"/><path d="M 102.5563 13.3336 C 102.9679 13.3336 103.3098 13.4813 103.593 13.7648 C 103.8764 14.0479 104.0241 14.3898 104.0241 14.7858 C 104.0241 15.1934 103.8764 15.5313 103.593 15.8145 C 103.3098 16.098 102.9679 16.2456 102.5563 16.2456 L 94.9079 16.2456 C 94.504 16.2456 94.1624 16.098 93.8789 15.8145 C 93.5955 15.5313 93.4481 15.1934 93.4481 14.7858 L 93.4481 1.5619 C 93.4481 1.158 93.5955 0.8164 93.8789 0.5329 C 94.1624 0.2494 94.504 0.102 94.9079 0.102 L 102.5563 0.102 C 102.9679 0.102 103.3098 0.2494 103.593 0.5329 C 103.8764 0.8164 104.0241 1.158 104.0241 1.5619 C 104.0241 1.9619 103.8764 2.3111 103.593 2.5946 C 103.3098 2.878 102.9679 3.0138 102.5563 3.0138 L 96.3598 3.0138 L 96.3598 6.7411 L 101.0696 6.7411 C 101.4772 6.7411 101.8188 6.8888 102.1022 7.1722 C 102.3857 7.4554 102.5331 7.7973 102.5331 8.2009 C 102.5331 8.6009 102.3857 8.9388 102.1022 9.222 C 101.8188 9.5054 101.4772 9.6531 101.0696 9.6531 L 96.3598 9.6531 L 96.3598 13.3336 Z" fill="#000000" fill-opacity="1" id="pdf_elem_svg_path_11"/><path d="M 149.4975 5.8326 L 151.9203 11.2215 L 154.3431 5.8326 Z Z M 148.1814 2.9208 L 155.6087 2.9208 L 155.628 2.9208 L 155.6631 2.9324 L 156.5405 0.9641 C 156.7114 0.6029 156.983 0.3506 157.3597 0.203 C 157.7324 0.0556 158.1089 0.0672 158.474 0.2378 C 158.8504 0.4088 159.099 0.669 159.2467 1.0454 C 159.3941 1.4221 159.3825 1.7949 159.2116 2.1713 L 153.252 15.3913 C 153.015 15.9582 152.5686 16.2456 151.9203 16.2456 C 151.272 16.2456 150.8292 15.9582 150.5925 15.3913 L 144.629 2.1713 C 144.462 1.7949 144.4504 1.4221 144.5978 1.0454 C 144.7452 0.669 144.9938 0.4088 145.3589 0.2378 C 145.7354 0.0672 146.1081 0.0556 146.4849 0.203 C 146.8613 0.3506 147.1215 0.6029 147.2922 0.9641 Z" fill="#000000" fill-opacity="1" id="pdf_elem_svg_path_12"/><path d="M 178.5609 15.8108 C 178.2774 15.5273 178.13 15.1858 178.13 14.7779 L 178.13 1.5695 C 178.13 1.1619 178.2774 0.8203 178.5609 0.5369 C 178.8443 0.2494 179.1859 0.102 179.5898 0.102 C 179.9898 0.102 180.3274 0.2494 180.6109 0.5369 C 180.8943 0.8203 181.0417 1.1619 181.0417 1.5695 L 181.0417 14.7779 C 181.0417 15.1858 180.8943 15.5273 180.6109 15.8108 C 180.3274 16.098 179.9898 16.2456 179.5898 16.2456 C 179.1859 16.2456 178.8443 16.098 178.5609 15.8108" fill="#000000" fill-opacity="1" id="pdf_elem_svg_path_13"/><path d="M 222.8621 16.2456 C 222.4542 16.2456 222.1126 16.098 221.8255 15.8145 C 221.542 15.5313 221.3943 15.1934 221.3943 14.7858 C 221.3943 14.3898 221.542 14.0479 221.8255 13.7648 C 222.1126 13.4813 222.4542 13.3336 222.8621 13.3336 L 226.0341 13.3336 L 226.0341 1.5735 C 226.0341 1.1619 226.1815 0.8203 226.4649 0.5369 C 226.7484 0.2534 227.0979 0.102 227.4939 0.102 C 227.8939 0.102 228.2431 0.2534 228.5266 0.5369 C 228.81 0.8203 228.9458 1.1619 228.9458 1.5735 L 228.9458 13.3336 L 232.1297 13.3336 C 232.5257 13.3336 232.8789 13.4813 233.1663 13.7648 C 233.4495 14.0479 233.5972 14.3898 233.5972 14.7858 C 233.5972 15.1934 233.4495 15.5313 233.1663 15.8145 C 232.8789 16.098 232.5257 16.2456 232.1297 16.2456 Z" fill="#000000" fill-opacity="1" id="pdf_elem_svg_path_14"/><path d="M 275.4213 16.2456 C 275.0134 16.2456 274.6718 16.098 274.3846 15.8145 C 274.1012 15.5313 273.9535 15.1934 273.9535 14.7858 C 273.9535 14.3898 274.1012 14.0479 274.3846 13.7648 C 274.6718 13.4813 275.0134 13.3336 275.4213 13.3336 L 278.5932 13.3336 L 278.5932 1.5735 C 278.5932 1.1619 278.7406 0.8203 279.0241 0.5369 C 279.3076 0.2534 279.6571 0.102 280.0531 0.102 C 280.453 0.102 280.8023 0.2534 281.0857 0.5369 C 281.3692 0.8203 281.505 1.1619 281.505 1.5735 L 281.505 13.3336 L 284.6889 13.3336 C 285.0849 13.3336 285.438 13.4813 285.7255 13.7648 C 286.0087 14.0479 286.1563 14.3898 286.1563 14.7858 C 286.1563 15.1934 286.0087 15.5313 285.7255 15.8145 C 285.438 16.098 285.0849 16.2456 284.6889 16.2456 Z" fill="#000000" fill-opacity="1" id="pdf_elem_svg_path_15"/><path d="M 313.492 13.3336 C 313.9036 13.3336 314.2454 13.4813 314.5286 13.7648 C 314.8121 14.0479 314.9597 14.3898 314.9597 14.7858 C 314.9597 15.1934 314.8121 15.5313 314.5286 15.8145 C 314.2454 16.098 313.9036 16.2456 313.492 16.2456 L 305.8435 16.2456 C 305.4396 16.2456 305.098 16.098 304.8146 15.8145 C 304.5311 15.5313 304.3837 15.1934 304.3837 14.7858 L 304.3837 1.5619 C 304.3837 1.158 304.5311 0.8164 304.8146 0.5329 C 305.098 0.2494 305.4396 0.102 305.8435 0.102 L 313.492 0.102 C 313.9036 0.102 314.2454 0.2494 314.5286 0.5329 C 314.8121 0.8164 314.9597 1.158 314.9597 1.5619 C 314.9597 1.9619 314.8121 2.3111 314.5286 2.5946 C 314.2454 2.878 313.9036 3.0138 313.492 3.0138 L 307.2954 3.0138 L 307.2954 6.7411 L 312.0052 6.7411 C 312.4128 6.7411 312.7544 6.8888 313.0379 7.1722 C 313.3213 7.4554 313.4687 7.7973 313.4687 8.2009 C 313.4687 8.6009 313.3213 8.9388 313.0379 9.222 C 312.7544 9.5054 312.4128 9.6531 312.0052 9.6531 L 307.2954 9.6531 L 307.2954 13.3336 Z" fill="#000000" fill-opacity="1" id="pdf_elem_svg_path_16"/><path d="M 340.5521 2.8043 C 339.0769 2.8043 337.811 3.3284 336.7551 4.3767 C 335.7068 5.4329 335.1864 6.6986 335.1864 8.1777 C 335.1864 9.6608 335.7068 10.9264 336.7551 11.971 C 337.811 13.0192 339.0769 13.5434 340.5521 13.5434 C 341.8373 13.5434 342.9672 13.1357 343.9534 12.3165 C 344.2717 12.0523 344.6365 11.9514 345.0365 11.9826 C 345.4325 12.0291 345.7624 12.2117 346.015 12.5184 C 346.2749 12.829 346.3758 13.1899 346.3449 13.5899 C 346.3098 13.9859 346.1275 14.3158 345.8208 14.576 C 344.2949 15.8301 342.544 16.4551 340.5521 16.4551 C 338.2693 16.4551 336.3126 15.6515 334.6974 14.0443 C 333.0782 12.4174 332.2746 10.4683 332.2746 8.1777 C 332.2746 5.891 333.0782 3.9302 334.6974 2.3151 C 336.3126 0.6962 338.2693 -0.1077 340.5521 -0.1077 C 342.6797 -0.1077 344.5356 0.6069 346.1159 2.0316 C 346.4226 2.3034 346.5816 2.645 346.5933 3.041 C 346.6165 3.4526 346.4923 3.8061 346.2168 4.1012 C 345.945 4.3963 345.6034 4.5553 345.2074 4.5785 C 344.8074 4.5901 344.454 4.466 344.1589 4.2058 C 343.1341 3.27 341.9306 2.8043 340.5521 2.8043" fill="#000000" fill-opacity="1" id="pdf_elem_svg_path_17"/><path d="M 377.1553 15.8108 C 376.8721 15.5273 376.7244 15.1858 376.7244 14.7742 L 376.7244 9.6531 L 369.0136 9.6531 L 369.0136 14.7742 C 369.0136 15.1858 368.8662 15.5273 368.5827 15.8108 C 368.2993 16.0943 367.9617 16.2456 367.5617 16.2456 C 367.1578 16.2456 366.8162 16.0943 366.5327 15.8108 C 366.2493 15.5273 366.1019 15.1858 366.1019 14.7742 L 366.1019 1.5735 C 366.1019 1.1619 366.2493 0.8203 366.5327 0.5369 C 366.8162 0.2534 367.1578 0.102 367.5617 0.102 C 367.9617 0.102 368.2993 0.2534 368.5827 0.5369 C 368.8662 0.8203 369.0136 1.1619 369.0136 1.5735 L 369.0136 6.7411 L 376.7244 6.7411 L 376.7244 1.5735 C 376.7244 1.1619 376.8721 0.8203 377.1553 0.5369 C 377.4387 0.2534 377.7883 0.102 378.1843 0.102 C 378.5842 0.102 378.9334 0.2534 379.2169 0.5369 C 379.5004 0.8203 379.6364 1.1619 379.6364 1.5735 L 379.6364 14.7742 C 379.6364 15.1858 379.5004 15.5273 379.2169 15.8108 C 378.9334 16.0943 378.5842 16.2456 378.1843 16.2456 C 377.7883 16.2456 377.4387 16.0943 377.1553 15.8108" fill="#000000" fill-opacity="1" id="pdf_elem_svg_path_18"/><path d="M 410.1517 15.8224 C 409.8685 15.539 409.7208 15.1858 409.7208 14.7895 L 409.7208 5.724 L 401.6917 15.6983 C 401.4978 15.935 401.2492 16.1059 400.9581 16.1872 C 400.6514 16.2649 400.3563 16.2649 400.0728 16.164 C 399.7777 16.0631 399.5408 15.8805 399.3701 15.6283 C 399.1915 15.3797 399.0983 15.0965 399.0983 14.7895 L 399.0983 1.5695 C 399.0983 1.1619 399.2457 0.8203 399.5291 0.5369 C 399.8126 0.2494 400.1542 0.102 400.5581 0.102 C 400.9581 0.102 401.2957 0.2494 401.5791 0.5369 C 401.8626 0.8203 402.01 1.1619 402.01 1.5695 L 402.01 10.6237 L 410.0508 0.6494 C 410.241 0.4088 410.4819 0.2418 410.7847 0.1602 C 411.0797 0.0828 411.3748 0.0828 411.6699 0.1837 C 411.9534 0.2846 412.1901 0.4669 412.3726 0.7194 C 412.5396 0.9794 412.6329 1.2628 412.6329 1.5695 L 412.6329 14.7895 C 412.6329 15.1858 412.4968 15.539 412.2133 15.8224 C 411.9299 16.1059 411.5806 16.2456 411.1807 16.2456 C 410.7847 16.2456 410.4351 16.1059 410.1517 15.8224" fill="#000000" fill-opacity="1" id="pdf_elem_svg_path_19"/><path d="M 435.8957 4.3767 C 434.8474 5.4329 434.323 6.6986 434.323 8.1777 C 434.323 9.6608 434.8474 10.9264 435.8957 11.971 C 436.9516 13.0192 438.2172 13.5434 439.6966 13.5434 C 441.1797 13.5434 442.4454 13.0192 443.4897 11.971 C 444.5379 10.9264 445.062 9.6608 445.062 8.1777 C 445.062 6.6986 444.5379 5.4329 443.4897 4.3767 C 442.4454 3.3284 441.1797 2.8043 439.6966 2.8043 C 438.2172 2.8043 436.9516 3.3284 435.8957 4.3767 Z M 433.834 14.0443 C 432.2149 12.4174 431.4112 10.4683 431.4112 8.1777 C 431.4112 5.891 432.2149 3.9302 433.834 2.3151 C 435.4492 0.6962 437.4096 -0.1077 439.6966 -0.1077 C 441.9873 -0.1077 443.9361 0.6962 445.5629 2.3151 C 447.1705 3.9302 447.9741 5.891 447.9741 8.1777 C 447.9741 10.4683 447.1705 12.4174 445.5629 14.0443 C 443.9361 15.6515 441.9873 16.4551 439.6966 16.4551 C 437.4096 16.4551 435.4492 15.6515 433.834 14.0443" fill="#000000" fill-opacity="1" id="pdf_elem_svg_path_20"/><path d="M 469.5596 3.0138 L 469.5596 14.7742 C 469.5596 15.1858 469.4122 15.5273 469.1288 15.8108 C 468.8453 16.098 468.5077 16.2456 468.1077 16.2456 C 467.7038 16.2456 467.3622 16.098 467.0787 15.8108 C 466.7953 15.5273 466.6479 15.1858 466.6479 14.7742 L 466.6479 1.5619 C 466.6479 1.158 466.7953 0.8164 467.0787 0.5329 C 467.3622 0.2494 467.7038 0.102 468.1077 0.102 L 474.7895 0.102 C 475.1895 0.102 475.5427 0.2494 475.8262 0.5329 C 476.1096 0.8164 476.2454 1.158 476.2454 1.5619 C 476.2454 1.9619 476.1096 2.3111 475.8262 2.5946 C 475.5427 2.878 475.1895 3.0138 474.7895 3.0138 Z" fill="#000000" fill-opacity="1" id="pdf_elem_svg_path_21"/><path d="M 498.27 4.3767 C 497.2218 5.4329 496.6974 6.6986 496.6974 8.1777 C 496.6974 9.6608 497.2218 10.9264 498.27 11.971 C 499.326 13.0192 500.5916 13.5434 502.071 13.5434 C 503.5541 13.5434 504.8198 13.0192 505.8641 11.971 C 506.9123 10.9264 507.4364 9.6608 507.4364 8.1777 C 507.4364 6.6986 506.9123 5.4329 505.8641 4.3767 C 504.8198 3.3284 503.5541 2.8043 502.071 2.8043 C 500.5916 2.8043 499.326 3.3284 498.27 4.3767 Z M 496.2084 14.0443 C 494.5893 12.4174 493.7856 10.4683 493.7856 8.1777 C 493.7856 5.891 494.5893 3.9302 496.2084 2.3151 C 497.8236 0.6962 499.784 -0.1077 502.071 -0.1077 C 504.3617 -0.1077 506.3105 0.6962 507.9373 2.3151 C 509.5449 3.9302 510.3485 5.891 510.3485 8.1777 C 510.3485 10.4683 509.5449 12.4174 507.9373 14.0443 C 506.3105 15.6515 504.3617 16.4551 502.071 16.4551 C 499.784 16.4551 497.8236 15.6515 496.2084 14.0443" fill="#000000" fill-opacity="1" id="pdf_elem_svg_path_22"/><path d="M 540.5338 7.9174 C 540.2466 7.6303 540.0989 7.2887 540.0989 6.8771 L 540.0989 3.8177 C 539.1672 3.1459 538.1266 2.8043 536.9774 2.8043 C 535.4943 2.8043 534.2287 3.3284 533.1688 4.3767 C 532.1205 5.4405 531.5961 6.7062 531.5961 8.1893 C 531.5961 9.6763 532.1205 10.942 533.1688 11.9942 C 534.2287 13.0425 535.4943 13.5666 536.9774 13.5666 C 538.2663 13.5666 539.3923 13.159 540.3864 12.3358 C 540.7047 12.0719 541.0658 11.971 541.4655 12.0059 C 541.8615 12.0487 542.1917 12.2309 542.4401 12.5416 C 542.7043 12.8483 542.8052 13.2134 542.7703 13.6131 C 542.7391 14.0091 542.5566 14.3393 542.2499 14.5993 C 540.724 15.8533 538.973 16.4786 536.9774 16.4786 C 534.6828 16.4786 532.7223 15.6747 531.1071 14.0675 C 529.488 12.4367 528.6844 10.4879 528.6844 8.1893 C 528.6844 5.8946 529.488 3.9342 531.1071 2.3151 C 532.7223 0.6962 534.6828 -0.1077 536.9774 -0.1077 C 539.1091 -0.1077 540.9765 0.6069 542.5566 2.0316 C 542.8749 2.3267 543.0342 2.6878 543.0342 3.111 L 543.0342 6.8771 C 543.0342 7.2887 542.8865 7.6303 542.5994 7.9174 C 542.3159 8.2009 541.9627 8.3523 541.5667 8.3523 C 541.1704 8.3523 540.8172 8.2009 540.5338 7.9174" fill="#000000" fill-opacity="1" id="pdf_elem_svg_path_23"/><path d="M 573.0877 16.2105 C 572.6917 16.1175 572.3926 15.9038 572.1792 15.5622 L 568.1684 9.1366 L 564.1617 15.5622 C 563.9443 15.9038 563.6492 16.1175 563.2532 16.2105 C 562.8535 16.2998 562.4884 16.2456 562.1508 16.0282 C 561.8089 15.8108 561.5915 15.5041 561.5022 15.1081 C 561.4089 14.7197 561.4673 14.3546 561.6808 14.0014 L 566.7086 5.9491 L 566.7086 1.5695 C 566.7086 1.1619 566.8563 0.8203 567.1397 0.5369 C 567.4232 0.2494 567.7724 0.102 568.1684 0.102 C 568.5684 0.102 568.9179 0.2494 569.2014 0.5369 C 569.4849 0.8203 569.6206 1.1619 569.6206 1.5695 L 569.6206 5.9491 L 574.6561 14.0014 C 574.8735 14.3546 574.9319 14.7197 574.8386 15.1081 C 574.7494 15.5041 574.5319 15.8108 574.1904 16.0282 C 573.8488 16.2456 573.4877 16.2998 573.0877 16.2105" fill="#000000" fill-opacity="1" id="pdf_elem_svg_path_24"/><path d="M 123.6243 4.2001 C 121.4223 4.2001 119.6371 5.9854 119.6371 8.1876 C 119.6371 10.3898 121.4223 12.1748 123.6243 12.1748 C 125.8265 12.1748 127.6118 10.3898 127.6118 8.1876 C 127.6118 5.9854 125.8265 4.2001 123.6243 4.2001" fill="#ff6600" fill-rule="evenodd" fill-opacity="1" id="pdf_elem_svg_path_25"/><path d="M 253.7714 3.3497 C 251.5691 3.3497 249.7842 5.135 249.7842 7.3372 C 249.7842 9.5394 251.5691 11.3244 253.7714 11.3244 C 255.9736 11.3244 257.7589 9.5394 257.7589 7.3372 C 257.7589 5.135 255.9736 3.3497 253.7714 3.3497" fill="#ff6600" fill-rule="evenodd" fill-opacity="1" id="pdf_elem_svg_path_26"/><path d="M 202.6239 12.9699 C 205.882 12.9699 208.5231 10.3289 208.5231 7.0707 C 208.5231 3.8126 205.882 1.1716 202.6239 1.1716 C 199.3657 1.1716 196.7247 3.8126 196.7247 7.0707 C 196.7247 10.3289 199.3657 12.9699 202.6239 12.9699Z" fill="none" stroke="#000000" stroke-opacity="1" stroke-miterlimit="18.794376504" stroke-linecap="butt" stroke-linejoin="round" stroke-width="2.4999px" stroke-dasharray="" stroke-dashoffset="0px" id="pdf_elem_svg_path_27"/><path d="M -0.036 -0.1071 L 574.9322 -0.1071 L 574.9322 16.4784 L -0.036 16.4784 Z" fill="none" id="pdf_elem_svg_path_5"/></g></g></g></g>
            </g>
            </svg>